<svg version="1.2" xmlns="http://www.w3.org/2000/svg" viewBox="0 0 1262 804" width="3140" height="2000"><style>.a{opacity:1;fill:#fe677a}</style><path fill-rule="evenodd" class="a" d="m300.7 185.5l1.7 13.7c0.9 7.6 3.5 20.1 5.9 27.8 2.3 7.7 7.8 20.8 12.2 29 4.4 8.3 12.3 21.3 17.5 29 5.2 7.7 17.8 25.3 28.1 39 10.2 13.8 23.9 33.1 30.4 43 6.5 9.9 14.8 24.3 18.4 32 3.7 7.7 8.6 20.3 11 28 2.4 7.7 4.9 22.1 5.5 32 0.8 13.2 0.2 21.5-2.2 31-1.8 7.1-5.9 18.4-9 25-3.2 6.6-10.6 17.2-16.5 23.6-5.9 6.3-10.9 11.3-11.2 11-0.3-0.3 0.5-6.9 1.7-14.6 1.9-11.5 1.7-16.8-0.9-30-1.8-8.8-6.3-22.3-10.1-30-3.7-7.7-12.3-21.4-19-30.5-6.7-9.1-28.2-32.9-47.7-53-19.6-20.1-39.6-42.4-44.5-49.5-4.8-7.1-10.9-17.9-13.4-24-3.7-8.9-4.5-14.8-4.6-31.5 0-16.7 0.9-23.4 5.1-36 2.8-8.5 8.8-21.8 13.4-29.5 4.5-7.7 12.7-18.8 18.2-24.8zm694.3 188.6c4.4 0 11.6 1.7 16 3.6 4.4 2 9.9 6.3 12.3 9.5 2.3 3.2 5.2 9.5 6.5 13.9 1.2 4.4 2.2 10.2 2.2 13 0 4.6-0.8 5.1-12.5 6.5-6.9 0.8-20.8 1.5-49.5 1.5l2.5 6.2c1.4 3.6 5.5 7.8 9.5 10 3.9 2.1 10.2 3.8 14 3.8 4.3 0.1 9.9-1.9 14.5-5 7-4.7 7.9-4.8 12.5-2 2.8 1.6 5 3.9 5 5 0 1.1-2.5 4-5.5 6.5-3 2.6-9.1 5.8-13.5 7.3-4.4 1.5-13 2.3-19.3 1.9-8.9-0.6-12.9-2-19-6.9-4.2-3.3-9.8-10.1-12.3-15-3.7-7-4.5-11.4-4-21 0.5-9.6 1.9-13.9 6.5-20.6 3.9-5.5 9.5-10.3 16-13.4 5.6-2.6 13.7-4.8 18.1-4.8zm-23.5 29.5c-1.5 4.4-1.3 4.5 20.5 4.5h22c0-7.8-2.2-12.3-5-15-4-4-7-5-14.8-5-8.1 0-10.9 1-15.5 5.5-3.2 3.1-6.4 7.6-7.2 10zm-673.5-5.5c0.8 0 1.6 3.8 1.7 8.5 0.1 4.6 1.6 12.5 3.4 17.5 1.7 4.9 6.1 14.4 9.8 21 3.7 6.6 15.4 23.7 26 38 10.6 14.3 23.3 34.1 28.2 44 4.9 9.9 9.9 23.4 11.1 30 1.2 6.6 1.6 16.5 0.9 22-0.6 5.5-3.8 15.4-6.9 22-3.1 6.6-8.1 14.2-16.3 22l0.1-13.5c0-8.6-1.4-17.4-3.9-24-2.1-5.8-7.4-15.9-11.8-22.5-4.3-6.6-19.9-24.6-34.6-40-16.4-17.1-28.7-31.9-31.7-38-4.1-8.3-5-13-5-27 0-14.8 0.8-18.7 6.1-30 3.4-7.2 9.6-16.9 13.7-21.5 4.2-4.7 8.3-8.5 9.2-8.5zm258.3-68.3l14.7 1.3 2 77.1 31.4-32.1h22l-17.2 17.5c-9.4 9.6-17.2 18.1-17.2 19 0 0.8 8.2 10.2 36.4 40.5l-21.4 1.1-11-12.5c-6-7-13.9-15.8-23.9-26.6l-0.1 39h-16zm-52.3 6.2c9.6 0 15.4 1.2 22 4.5 5 2.5 9.2 5.9 9.5 7.5 0.2 1.7-2.3 5-5.5 7.5-5.9 4.5-6 4.5-11.5 0.6-3-2.1-7.7-4-10.5-4.2-2.7-0.2-7.5-0.2-10.5-0.1-3.1 0.1-7.8 2.4-10.5 5.2-3.1 3.1-5 7.3-5 11 0 3.5 1.9 7.9 4.5 10.6 2.5 2.5 12.1 7.3 21.3 10.5 12.7 4.5 18.4 7.7 23.5 13.4 5.7 6.3 6.7 9 6.7 17 0 5.2-1.8 13.3-4 18-2.8 6.1-6.7 10.1-13.5 14-7.9 4.6-11.7 5.5-23.5 5.4-10-0.1-16.2-1.3-22-4.3-4.4-2.3-9.5-6.1-11.5-8.4-3.4-4.1-3.3-4.4 3.6-9.7 6.5-5.1 7.3-5.2 9.5-2.1 1.4 1.9 6 4.9 10.4 6.7 5.7 2.3 10.4 2.8 16 1.7 4.8-0.8 9.9-3.5 12.6-6.6 2.6-3 4.6-7.8 4.6-11.2 0-3.3-1.6-7.5-3.6-9.4-2-1.8-10.8-6.1-19.6-9.5-8.8-3.4-18-7.5-20.5-9.2-2.4-1.6-6.3-5.8-8.4-9.4-2.6-4.2-4.1-10.1-4.1-16.5-0.1-7.4 1.2-11.8 4.8-16.8 2.6-3.8 8.7-8.9 13.4-11.5 6.6-3.6 11.9-4.7 21.8-4.7zm350.6 2c2.4-0.1 6.1 1.1 8.1 2.5 2.2 1.5 3.7 4.9 3.7 8.5 0 3.6-1.5 7-3.7 8.6-2 1.4-5.9 2.3-8.6 2-2.8-0.3-6.2-2.9-8-5.9-2.8-4.8-2.7-5.7 0.5-10.5 2-3 5.4-5.2 8-5.2zm59.9 36.1c3.1-0.1 8.5 1.2 12 2.8 3.6 1.6 8.1 4.8 10 7 3.4 4 3.3 4.2-2.5 8.1-5.4 3.6-6.4 3.7-10.5 1-2.4-1.7-7.6-3.1-11.5-3.1-3.9 0-8 1.3-9.5 3-1.3 1.7-2.2 4.7-2 6.6 0.4 2.5 5.2 5 16 8.5 8.5 2.8 17.3 6.8 19.6 9 2.2 2.2 4.5 7.6 5.1 12 0.8 5.7 0 9.7-2.7 14-2 3.3-7 7.6-11.1 9.5-4.3 2.1-12.1 3.5-18.9 3.5-7.4 0-13.9-1.3-18.5-3.8-3.8-2-7.9-5.2-9-7.1-1.5-2.7-0.7-4.4 4-8.1 6-4.7 6.1-4.7 11-0.8 2.8 2.1 7.7 4.4 11 5 3.3 0.6 8.6-0.1 11.6-1.5 3.4-1.6 5.6-4.3 5.6-6.7 0-2.2-1.1-5-2.6-6.3-1.4-1.3-6.6-3.4-11.6-4.7-4.9-1.3-11.7-3.6-15-5.1-3.3-1.5-7.5-5.8-9.5-9.8-1.9-4-3-9.5-2.5-12.6 0.6-3 3-7.5 5.5-10 2.5-2.5 8.1-5.8 12.5-7.4 4.4-1.6 10.5-3 13.5-3zm-273.4 2.3c9.2 0.6 9.5 0.9 12.9 9.6 1.9 5 6.9 18 11.1 29 7.6 19.8 7.7 19.9 10 14 1.3-3.3 6.1-16.6 18.9-53h8c4.4 0 8 0.9 8 2 0 1.1-8.3 23.4-18.5 49.5-10.2 26.1-20.4 50.7-22.6 54.5-2.7 4.7-6.6 7.9-11.9 9.8-4.9 1.7-10.9 2.3-15.5 1.5-5.7-1-7.5-2.2-7.5-5.3 0-2.2 0.5-5.3 1-7 0.7-2 3.6-3 8.5-2.9 4.7 0 8.8-1.3 10.9-3.5 1.8-2 4.8-7.2 9.8-19.6l-15.3-37c-8.3-20.3-15.7-38.2-16.2-39.6-0.8-2 1.2-2.5 8.4-2zm89.9-0.5l8 26.3c4.4 14.4 8.5 26.6 9 26.9 0.6 0.4 4.9-11.4 18-53.1h17l9 27c5 14.9 9.5 27 10 27 0.6 0 3.1-7.4 5.7-16.5 2.5-9.1 5.9-21.2 10.3-37.5l17 0.1-24.3 76.9h-17.4l-9.1-25.5c-5.1-14-9.6-25.5-10.2-25.5-0.5 0-4.8 11.7-18 52h-17l-12.4-37.5c-6.9-20.6-12.5-38.2-12.5-39-0.1-0.8 3.8-1.5 16.9-1.6zm117 0.1h16v78h-16z"/></svg>